<svg width="316" height="275" viewBox="0 0 316 275" fill="none" xmlns="http://www.w3.org/2000/svg">
<g clip-path="url(#clip0_13_149)">
<g clip-path="url(#clip1_13_149)">
<g clip-path="url(#clip2_13_149)">
<g clip-path="url(#clip3_13_149)">
<g clip-path="url(#clip4_13_149)">
<g clip-path="url(#clip5_13_149)">
<g clip-path="url(#clip6_13_149)">
<g clip-path="url(#clip7_13_149)">
<g clip-path="url(#clip8_13_149)">
<path d="M10.3848 163.344V232.971H0.36499V163.344H10.3848ZM27.1556 181.225H36.2994L36.5985 187.728C40.914 182.766 46.547 180.285 53.4975 180.285C65.4329 180.285 71.4504 186.448 71.5501 198.774V232.971H61.8936V198.735C61.8651 195.001 60.9393 192.246 59.1162 190.47C57.2932 188.681 54.4518 187.787 50.592 187.787C47.4586 187.787 44.7097 188.55 42.3454 190.078C39.9811 191.606 38.1367 193.617 36.8121 196.111V232.971H27.1556V181.225ZM89.5387 168.71H99.1953V181.225H109.728V188.08H99.1953V220.162C99.1953 222.225 99.6653 223.779 100.605 224.823C101.545 225.855 103.141 226.371 105.391 226.371C106.502 226.371 108.033 226.181 109.984 225.803V232.971C107.449 233.611 104.978 233.931 102.571 233.931C98.2695 233.931 95.0222 232.736 92.8288 230.346C90.6354 227.957 89.5387 224.562 89.5387 220.162V188.08H79.2626V181.225H89.5387V168.71ZM122.504 163.344H135.429L160.254 220.162L185.079 163.344H198.068V232.971H188.07V205.864L189.01 176.603L164.078 232.971H156.408L131.519 176.74L132.523 205.864V232.971H122.504V163.344ZM249.299 232.971L249.086 227.859C245.326 231.907 239.814 233.931 232.55 233.931C226.54 233.931 221.96 232.325 218.813 229.113C215.665 225.914 214.07 221.174 214.027 214.893V181.225H223.684V214.658C223.684 222.506 227.159 226.429 234.11 226.429C241.487 226.429 246.394 223.909 248.829 218.869V181.225H258.465V232.971H249.299ZM305.978 219.241C305.978 216.852 304.996 214.998 303.03 213.679C301.065 212.36 297.639 211.218 292.754 210.251C287.869 209.298 283.995 208.156 281.132 206.824C278.255 205.479 276.133 203.88 274.765 202.025C273.398 200.184 272.714 197.984 272.714 195.425C272.714 191.194 274.666 187.61 278.568 184.672C282.485 181.748 287.484 180.285 293.566 180.285C299.961 180.285 305.152 181.8 309.14 184.829C313.114 187.845 315.101 191.717 315.101 196.443H305.402C305.402 194.015 304.283 191.926 302.047 190.176C299.797 188.426 296.97 187.552 293.566 187.552C290.062 187.552 287.313 188.25 285.319 189.647C283.34 191.057 282.35 192.892 282.35 195.151C282.35 197.279 283.275 198.885 285.127 199.969C286.964 201.053 290.29 202.091 295.104 203.083C299.918 204.075 303.821 205.257 306.812 206.628C309.803 207.999 312.024 209.644 313.477 211.564C314.916 213.496 315.635 215.853 315.635 218.634C315.635 223.256 313.62 226.958 309.589 229.739C305.544 232.534 300.31 233.931 293.886 233.931C289.357 233.931 285.355 233.199 281.88 231.737C278.404 230.262 275.684 228.212 273.719 225.587C271.753 222.95 270.77 220.103 270.77 217.048H280.427C280.598 220.012 281.894 222.362 284.315 224.099C286.722 225.835 289.913 226.703 293.886 226.703C297.532 226.703 300.459 226.025 302.667 224.667C304.875 223.322 305.978 221.513 305.978 219.241Z" fill="white"/>
</g>
</g>
<g clip-path="url(#clip9_13_149)">
<g clip-path="url(#clip10_13_149)">
<path d="M2.53511 273.641H0.348877V244.928H2.53511V273.641ZM13.6088 273.641H11.5177V252.727H13.3237L13.5138 255.951H13.6564C14.8287 254.877 16.0327 253.982 17.2684 253.268C18.5041 252.559 19.9141 252.204 21.4983 252.204C23.8746 252.204 25.6173 252.858 26.7262 254.165C27.8352 255.472 28.3897 257.491 28.3897 260.221V273.641H26.2985V260.483C26.2985 258.246 25.8929 256.596 25.0818 255.533C24.277 254.476 22.9399 253.947 21.0705 253.947C19.7081 253.947 18.4724 254.273 17.3635 254.923C16.2545 255.58 15.003 256.561 13.6088 257.869V273.641ZM43.0279 274.164C41.9189 274.164 41.0001 274.013 40.2714 273.711C39.5426 273.403 38.9564 272.973 38.5129 272.421C38.0693 271.869 37.7588 271.201 37.5813 270.417C37.4102 269.633 37.3247 268.776 37.3247 267.846V254.383H33.7602V252.902L37.3722 252.727L37.6574 246.671H39.4634V252.727H46.0696V254.383H39.4634V268.021C39.4634 268.689 39.5173 269.29 39.625 269.824C39.7391 270.365 39.9387 270.829 40.2238 271.219C40.509 271.614 40.8955 271.919 41.3835 272.134C41.8778 272.354 42.521 272.465 43.3131 272.465C43.7566 272.465 44.2383 272.398 44.7579 272.264C45.2838 272.137 45.7528 271.986 46.1647 271.811L46.735 273.38C46.0696 273.612 45.4042 273.801 44.7389 273.946C44.0735 274.091 43.5032 274.164 43.0279 274.164ZM59.7478 274.164C58.2903 274.164 56.9216 273.917 55.6415 273.423C54.3551 272.93 53.2367 272.209 52.2861 271.262C51.3356 270.321 50.5847 269.174 50.0333 267.82C49.4757 266.472 49.1969 264.942 49.1969 263.228C49.1969 261.514 49.4757 259.975 50.0333 258.609C50.5847 257.244 51.3292 256.088 52.2671 255.141C53.1986 254.2 54.2601 253.474 55.4514 252.963C56.6364 252.457 57.8626 252.204 59.13 252.204C61.8548 252.204 63.9935 253.047 65.5461 254.731C67.0986 256.416 67.8749 258.798 67.8749 261.877C67.8749 262.139 67.8749 262.4 67.8749 262.661C67.8749 262.923 67.8432 263.184 67.7798 263.446H51.3356C51.3673 264.753 51.5891 265.964 52.001 267.079C52.4129 268.201 52.9927 269.159 53.7404 269.955C54.4819 270.757 55.3754 271.381 56.4209 271.829C57.4665 272.282 58.6389 272.508 59.9379 272.508C61.1736 272.508 62.2921 272.34 63.2933 272.003C64.2882 271.672 65.2134 271.216 66.0689 270.635L66.9244 272.116C66.0055 272.61 65.0011 273.075 63.9112 273.51C62.8149 273.946 61.4271 274.164 59.7478 274.164ZM51.3356 261.877H65.8788C65.8788 259.176 65.2768 257.163 64.0728 255.838C62.8687 254.519 61.237 253.86 59.1775 253.86C58.1953 253.86 57.2606 254.04 56.3734 254.4C55.4863 254.766 54.6878 255.298 53.9781 255.995C53.262 256.692 52.6758 257.535 52.2196 258.522C51.757 259.51 51.4623 260.628 51.3356 261.877ZM76.1445 273.641H74.0534V252.727H75.8594L76.0495 256.605H76.1921C76.9525 255.298 77.8809 254.238 78.9771 253.424C80.0671 252.611 81.2933 252.204 82.6557 252.204C83.0993 252.204 83.4954 252.233 83.8439 252.292C84.1924 252.35 84.5568 252.466 84.937 252.64L84.4617 254.383C84.0815 254.238 83.7488 254.142 83.4637 254.095C83.1785 254.055 82.8141 254.034 82.3706 254.034C81.3567 254.034 80.2889 254.432 79.1672 255.228C78.0393 256.03 77.0317 257.418 76.1445 259.394V273.641ZM93.1116 274.164C92.1927 274.164 91.3373 274.048 90.5452 273.815C89.753 273.583 89.056 273.235 88.454 272.77C87.852 272.305 87.3767 271.71 87.0282 270.983C86.6796 270.257 86.5054 269.4 86.5054 268.413C86.5054 266.089 87.684 264.323 90.0414 263.115C92.405 261.912 96.1375 261.049 101.239 260.526C101.239 259.742 101.175 258.949 101.049 258.147C100.922 257.352 100.653 256.64 100.241 256.012C99.8287 255.391 99.2742 254.883 98.5772 254.488C97.8801 254.098 96.9613 253.904 95.8206 253.904C94.2998 253.904 92.9056 254.18 91.6383 254.731C90.3709 255.283 89.3411 255.821 88.549 256.344L87.5985 254.906C88.0104 254.644 88.5078 254.354 89.0908 254.034C89.6802 253.715 90.3392 253.424 91.0679 253.163C91.7967 252.902 92.5888 252.675 93.4443 252.483C94.2998 252.297 95.1869 252.204 96.1058 252.204C97.4365 252.204 98.5613 252.414 99.4802 252.832C100.399 253.256 101.144 253.831 101.714 254.557C102.284 255.283 102.696 256.132 102.95 257.102C103.203 258.078 103.33 259.132 103.33 260.265V273.641H101.524L101.334 270.94H101.191C100.019 271.782 98.7578 272.529 97.408 273.179C96.0646 273.836 94.6325 274.164 93.1116 274.164ZM93.4918 272.508C94.8226 272.508 96.0899 272.218 97.294 271.637C98.498 271.056 99.8129 270.214 101.239 269.11V262.008C98.894 262.269 96.9137 262.589 95.2978 262.966C93.6819 263.344 92.3829 263.794 91.4006 264.317C90.4184 264.84 89.7119 265.435 89.2809 266.103C88.8564 266.772 88.6441 267.512 88.6441 268.326C88.6441 269.081 88.7708 269.72 89.0243 270.243C89.2778 270.766 89.6263 271.193 90.0699 271.524C90.5135 271.861 91.0268 272.107 91.6098 272.264C92.1991 272.427 92.8264 272.508 93.4918 272.508ZM119.917 274.164C118.428 274.164 117.056 273.917 115.801 273.423C114.553 272.93 113.459 272.218 112.522 271.288C111.59 270.359 110.861 269.217 110.335 267.864C109.816 266.516 109.556 264.971 109.556 263.228C109.556 261.485 109.841 259.925 110.411 258.548C110.982 257.166 111.742 256.01 112.693 255.08C113.643 254.151 114.743 253.439 115.991 252.945C117.246 252.451 118.57 252.204 119.964 252.204C121.548 252.204 122.863 252.466 123.909 252.989C124.955 253.512 125.873 254.107 126.665 254.775L125.43 256.126C124.701 255.487 123.893 254.955 123.006 254.531C122.119 254.113 121.121 253.904 120.012 253.904C118.839 253.904 117.753 254.127 116.751 254.575C115.757 255.028 114.885 255.667 114.137 256.492C113.396 257.323 112.81 258.304 112.379 259.437C111.954 260.57 111.742 261.834 111.742 263.228C111.742 264.593 111.939 265.842 112.331 266.975C112.731 268.108 113.285 269.081 113.995 269.894C114.711 270.707 115.582 271.338 116.609 271.785C117.642 272.238 118.776 272.465 120.012 272.465C121.216 272.465 122.331 272.232 123.358 271.768C124.391 271.303 125.303 270.736 126.095 270.068L127.188 271.419C126.206 272.203 125.113 272.857 123.909 273.38C122.705 273.903 121.374 274.164 119.917 274.164ZM138.538 274.164C137.429 274.164 136.51 274.013 135.781 273.711C135.052 273.403 134.466 272.973 134.023 272.421C133.579 271.869 133.272 271.201 133.101 270.417C132.923 269.633 132.834 268.776 132.834 267.846V254.383H129.27V252.902L132.882 252.727L133.167 246.671H134.973V252.727H141.579V254.383H134.973V268.021C134.973 268.689 135.03 269.29 135.144 269.824C135.252 270.365 135.448 270.829 135.734 271.219C136.019 271.614 136.408 271.919 136.903 272.134C137.391 272.354 138.031 272.465 138.823 272.465C139.266 272.465 139.751 272.398 140.277 272.264C140.797 272.137 141.263 271.986 141.674 271.811L142.245 273.38C141.579 273.612 140.914 273.801 140.249 273.946C139.583 274.091 139.013 274.164 138.538 274.164ZM149.231 273.641H147.14V252.727H149.231V273.641ZM148.233 247.673C147.694 247.673 147.245 247.513 146.883 247.194C146.516 246.874 146.332 246.468 146.332 245.974C146.332 245.422 146.516 244.992 146.883 244.684C147.245 244.382 147.694 244.231 148.233 244.231C148.772 244.231 149.225 244.382 149.592 244.684C149.954 244.992 150.134 245.422 150.134 245.974C150.134 246.468 149.954 246.874 149.592 247.194C149.225 247.513 148.772 247.673 148.233 247.673ZM165.248 273.641H162.776L154.221 252.727H156.503L161.636 265.842C161.984 266.859 162.364 267.875 162.776 268.892C163.188 269.909 163.568 270.896 163.917 271.855H164.107C164.487 270.896 164.874 269.909 165.267 268.892C165.666 267.875 166.056 266.859 166.436 265.842L171.569 252.727H173.707L165.248 273.641ZM187.3 274.164C185.843 274.164 184.471 273.917 183.184 273.423C181.904 272.93 180.789 272.209 179.838 271.262C178.888 270.321 178.134 269.174 177.576 267.82C177.025 266.472 176.749 264.942 176.749 263.228C176.749 261.514 177.025 259.975 177.576 258.609C178.134 257.244 178.878 256.088 179.81 255.141C180.748 254.2 181.809 253.474 182.994 252.963C184.186 252.457 185.415 252.204 186.682 252.204C189.407 252.204 191.546 253.047 193.098 254.731C194.651 256.416 195.427 258.798 195.427 261.877C195.427 262.139 195.427 262.4 195.427 262.661C195.427 262.923 195.396 263.184 195.332 263.446H178.888C178.92 264.753 179.141 265.964 179.553 267.079C179.965 268.201 180.542 269.159 181.283 269.955C182.031 270.757 182.928 271.381 183.973 271.829C185.019 272.282 186.191 272.508 187.49 272.508C188.726 272.508 189.841 272.34 190.836 272.003C191.837 271.672 192.766 271.216 193.621 270.635L194.477 272.116C193.558 272.61 192.55 273.075 191.454 273.51C190.364 273.946 188.979 274.164 187.3 274.164ZM178.888 261.877H193.431C193.431 259.176 192.829 257.163 191.625 255.838C190.421 254.519 188.789 253.86 186.73 253.86C185.748 253.86 184.813 254.04 183.926 254.4C183.039 254.766 182.237 255.298 181.521 255.995C180.811 256.692 180.225 257.535 179.762 258.522C179.306 259.51 179.015 260.628 178.888 261.877ZM213.383 273.641H211.339V244.928H214.428L220.987 261.79C221.399 262.836 221.811 263.887 222.223 264.944C222.635 266.008 223.047 267.077 223.458 268.151H223.649C224.06 267.077 224.457 266.008 224.837 264.944C225.217 263.887 225.613 262.836 226.025 261.79L232.536 244.928H235.673V273.641H233.534V254.775C233.534 253.584 233.566 252.297 233.629 250.915C233.693 249.538 233.756 248.239 233.819 247.019H233.629L231.205 253.424L224.457 270.504H222.555L215.759 253.424L213.288 247.019H213.098C213.161 248.239 213.224 249.538 213.288 250.915C213.351 252.297 213.383 253.584 213.383 254.775V273.641ZM251.214 274.164C248.838 274.164 247.095 273.51 245.986 272.203C244.877 270.896 244.323 268.877 244.323 266.147V252.727H246.414V265.886C246.414 268.122 246.816 269.769 247.621 270.827C248.432 271.89 249.757 272.421 251.594 272.421C252.957 272.421 254.192 272.078 255.301 271.393C256.41 270.713 257.63 269.633 258.961 268.151V252.727H261.052V273.641H259.294L259.056 270.156H258.961C257.852 271.376 256.68 272.349 255.444 273.075C254.208 273.801 252.798 274.164 251.214 274.164ZM275.31 274.164C273.599 274.164 272.031 273.879 270.605 273.31C269.179 272.747 267.959 272.073 266.945 271.288L268.181 269.851C269.163 270.606 270.209 271.236 271.318 271.742C272.427 272.253 273.805 272.508 275.453 272.508C277.259 272.508 278.612 272.093 279.512 271.262C280.418 270.437 280.871 269.473 280.871 268.369C280.871 267.73 280.703 267.164 280.367 266.67C280.038 266.176 279.603 265.755 279.065 265.406C278.526 265.058 277.93 264.753 277.278 264.491C276.631 264.23 275.976 263.983 275.31 263.751C274.455 263.46 273.59 263.155 272.715 262.836C271.847 262.516 271.064 262.13 270.367 261.677C269.67 261.229 269.106 260.692 268.675 260.065C268.251 259.443 268.039 258.682 268.039 257.781C268.039 257.026 268.197 256.306 268.514 255.62C268.831 254.941 269.306 254.345 269.94 253.834C270.573 253.329 271.34 252.931 272.24 252.64C273.146 252.35 274.201 252.204 275.405 252.204C276.609 252.204 277.788 252.408 278.941 252.814C280.101 253.221 281.093 253.744 281.916 254.383L280.776 255.734C280.015 255.211 279.207 254.766 278.352 254.4C277.496 254.04 276.482 253.86 275.31 253.86C274.423 253.86 273.663 253.968 273.029 254.183C272.395 254.403 271.863 254.688 271.432 255.036C271.007 255.385 270.691 255.792 270.481 256.256C270.279 256.721 270.177 257.186 270.177 257.651C270.177 258.261 270.326 258.778 270.624 259.202C270.928 259.62 271.334 259.989 271.841 260.309C272.348 260.628 272.924 260.91 273.571 261.154C274.223 261.404 274.882 261.645 275.548 261.877C276.435 262.197 277.322 262.516 278.209 262.836C279.096 263.155 279.895 263.547 280.605 264.012C281.321 264.477 281.901 265.049 282.344 265.729C282.788 266.414 283.009 267.265 283.009 268.282C283.009 269.066 282.842 269.813 282.506 270.522C282.176 271.236 281.679 271.861 281.013 272.395C280.348 272.935 279.54 273.365 278.59 273.685C277.639 274.004 276.546 274.164 275.31 274.164ZM291.127 273.641H289.036V252.727H291.127V273.641ZM290.129 247.673C289.59 247.673 289.14 247.513 288.779 247.194C288.412 246.874 288.228 246.468 288.228 245.974C288.228 245.422 288.412 244.992 288.779 244.684C289.14 244.382 289.59 244.231 290.129 244.231C290.668 244.231 291.121 244.382 291.488 244.684C291.849 244.992 292.03 245.422 292.03 245.974C292.03 246.468 291.849 246.874 291.488 247.194C291.121 247.513 290.668 247.673 290.129 247.673ZM308.379 274.164C306.89 274.164 305.521 273.917 304.273 273.423C303.018 272.93 301.925 272.218 300.994 271.288C300.056 270.359 299.327 269.217 298.807 267.864C298.281 266.516 298.018 264.971 298.018 263.228C298.018 261.485 298.304 259.925 298.874 258.548C299.444 257.166 300.205 256.01 301.155 255.08C302.106 254.151 303.208 253.439 304.463 252.945C305.711 252.451 307.033 252.204 308.427 252.204C310.011 252.204 311.326 252.466 312.372 252.989C313.417 253.512 314.336 254.107 315.128 254.775L313.892 256.126C313.164 255.487 312.356 254.955 311.469 254.531C310.581 254.113 309.583 253.904 308.474 253.904C307.302 253.904 306.218 254.127 305.224 254.575C304.222 255.028 303.351 255.667 302.61 256.492C301.862 257.323 301.276 258.304 300.851 259.437C300.42 260.57 300.205 261.834 300.205 263.228C300.205 264.593 300.404 265.842 300.804 266.975C301.196 268.108 301.751 269.081 302.467 269.894C303.177 270.707 304.048 271.338 305.081 271.785C306.108 272.238 307.239 272.465 308.474 272.465C309.678 272.465 310.797 272.232 311.83 271.768C312.856 271.303 313.766 270.736 314.558 270.068L315.651 271.419C314.669 272.203 313.576 272.857 312.372 273.38C311.168 273.903 309.837 274.164 308.379 274.164Z" fill="white"/>
</g>
</g>
</g>
</g>
<g clip-path="url(#clip11_13_149)">
<g clip-path="url(#clip12_13_149)">
<path d="M114.717 42.1614L112.303 40.3909L110.734 41.2762L108.803 47.9158H109.769L111.217 44.1533C111.217 44.1533 111.337 42.9352 112.546 43.268C113.755 43.6009 114.717 42.1614 114.717 42.1614Z" fill="white"/>
<path d="M119.062 86.6488L117.011 85.8733L116.045 87.4225L117.554 88.1963H119.062V86.6488Z" fill="white"/>
<path d="M120.028 88.1963V88.862L120.874 89.4144V88.1963H120.028Z" fill="white"/>
<path d="M122.805 89.4143H121.959L122.805 90.852H124.132V89.4143H122.805Z" fill="white"/>
<path d="M179.546 12.1751C179.546 12.1751 181.734 8.27811 184.606 7.74694C187.064 7.2919 187.147 7.22285 187.147 7.22285L188.468 6.08792C188.468 6.08792 187.889 5.46645 186.657 5.20263C185.131 4.87331 181.467 3.54184 181.467 3.54184L181.226 1.99259C181.226 1.99259 178.57 -0.11084 176.88 -0.11084L175.474 0.88599L178.371 2.13955C178.371 2.13955 177.568 3.54184 176.923 3.46748C176.278 3.39311 172.575 3.3577 172.174 6.14103L173.945 9.95837C173.945 9.95837 175.231 11.7289 173.864 13.3526C172.496 14.9762 170.967 16.3767 170.967 16.3767V14.7531C170.967 14.7531 172.013 13.4251 172.013 13.1295C172.013 12.8338 172.336 11.6546 172.577 11.5802C172.819 11.5059 172.738 8.74022 171.531 8.13115C170.324 7.52208 170.967 5.53019 170.967 5.53019L170.242 4.28017L168.794 4.35453L164.369 6.05073C164.369 6.05073 164.69 6.78906 165.414 7.15734C166.138 7.52562 165.495 8.11699 163.322 7.2317C161.15 6.34642 160.184 7.93285 159.701 8.13469C159.218 8.33654 156.08 8.63222 156.08 8.63222C156.08 8.63222 154.952 7.96826 154.149 9.73882C153.345 11.5094 154.068 13.133 151.976 13.6482L150.688 14.7548L150.365 17.4107L150.848 19.8452L153.343 20.5835C153.343 20.5835 153.102 21.4688 152.378 21.4688C151.653 21.4688 150.045 21.4688 150.045 21.4688L148.274 21.9115C148.274 21.9115 147.71 22.2798 149.562 22.3541C151.414 22.4285 151.333 24.1247 146.746 23.9034C146.746 23.9034 144.716 24.2911 144.353 24.9002C143.99 25.5093 143.146 26.3945 143.146 26.3945C143.146 26.3945 142.539 28.8822 144.169 28.9389C145.799 28.9955 148.333 29.7692 148.333 29.7692L154.67 29.3266C154.67 29.3266 155.696 28.6078 157.447 28.3315C159.199 28.0553 159.197 28.0553 159.197 28.0553C159.197 28.0553 161.37 27.7791 160.043 29.4382L157.569 30.6563C157.569 30.6563 155.819 32.8146 155.698 34.1974C155.576 35.5802 153.224 35.8016 152.86 35.8016L150.748 36.1893L149.419 37.5721L147.005 38.8452L146.221 39.3976H145.195C145.195 39.3976 144.712 41.3346 145.798 41.501C146.883 41.6675 148.212 41.501 148.212 41.501C148.212 41.501 150.203 42.6076 148.996 42.9387C147.789 43.2698 147.246 43.2716 147.246 43.2716L148.936 45.6512C148.936 45.6512 148.333 46.2603 148.152 46.2603C147.97 46.2603 147.126 46.2603 147.126 46.2603L146.584 44.7075C146.584 44.7075 145.678 43.9887 144.772 43.9887C143.866 43.9887 141.151 43.9887 141.151 43.9887L139.1 42.551L135.177 42.3297C135.177 42.3297 134.936 43.3247 135.177 43.9904C135.419 44.6562 134.814 45.9274 134.814 45.9274L134.451 46.2603L132.883 45.8177L130.951 43.1069C130.951 43.1069 129.443 42.3881 127.873 42.3881C126.303 42.3881 124.735 42.1668 124.735 42.1668L121.959 42.2181L119.605 39.95C119.605 39.95 119.182 39.7287 118.579 39.6738C117.977 39.6189 117.432 40.1713 117.432 40.1713L117.131 42.3845L115.623 44.1002C115.623 44.1002 113.39 48.6931 113.751 48.9144C114.112 49.1357 113.45 50.0759 113.45 50.0759L114.052 50.8514L114.958 51.4038L117.071 54.3359C117.071 54.3359 114.717 56.3278 114.415 55.6089C114.114 54.8901 113.751 52.5653 112.544 52.5653C111.337 52.5653 109.587 52.3989 109.587 52.3989L107.897 53.0628L107.051 53.6152L106.75 54.6103L109.224 54.9981L110.431 55.3858L110.551 57.1564L115.138 58.9818C115.138 58.9818 117.251 58.4843 117.432 58.0417C117.614 57.599 120.812 57.6539 120.812 57.6539C120.812 57.6539 122.26 58.0966 122.26 58.9818C122.26 59.8671 121.596 59.8671 121.596 59.8671V60.8622C121.596 60.8622 123.045 61.9139 122.32 61.9688C121.596 62.0237 115.924 61.9688 115.924 61.9688L114.475 63.3516C114.475 63.3516 114.294 64.6795 114.657 65.3435C115.02 66.0074 115.924 68.1091 115.924 68.1091L114.595 68.828H111.82C111.82 68.828 111.217 69.0493 111.457 69.9346C111.696 70.8198 110.128 70.2108 110.128 70.2108L109.765 69.6584L108.799 69.7681L107.714 70.4144L107.955 71.4271L110.792 73.7501C110.792 73.7501 110.673 74.3592 109.585 74.3592C108.498 74.3592 108.017 74.3592 108.017 74.3592L106.75 75.8536C106.75 75.8536 106.147 76.684 106.75 76.5175C107.353 76.3511 110.13 76.2962 110.13 76.2962L110.493 77.4577C110.493 77.4577 113.148 78.2881 113.208 78.0101C113.268 77.7321 113.933 75.9067 113.933 75.9067L115.744 75.7969C115.744 75.7969 117.193 76.514 116.951 77.0133C116.71 77.5126 114.417 79.2832 114.417 79.2832L114.719 80.1684H115.986H117.616L119.365 77.7888C119.365 77.7888 121.78 77.5126 122.203 78.0101C122.625 78.5076 122.625 79.5045 122.625 79.5045L121.841 81.8841C121.841 81.8841 122.264 84.0424 122.989 84.0424C123.713 84.0424 126.127 84.0424 126.127 84.0424L132.767 83.5998L133.792 82.217L132.827 78.9521L132.284 77.2913L130.409 77.0204L129.08 75.6376C129.08 75.6376 130.648 74.3096 131.977 75.0851C133.306 75.8607 133.727 75.9704 133.727 75.9704L134.573 78.405C134.573 78.405 137.168 80.6731 137.107 81.2821C137.045 81.8912 137.107 89.0284 131.372 87.7553L130.89 86.7603H129.742C129.742 86.7603 128.777 88.0333 128.777 88.3095C128.777 88.5857 126.664 91.7409 126.664 91.7409L124.254 94.726L124.555 95.5015L125.58 95.0589C125.58 95.0589 128.779 95.0589 127.089 96.3319C125.399 97.605 124.976 97.9361 124.976 97.9361L123.226 99.7066L123.408 101.367L121.295 102.143C121.295 102.143 119.906 104.023 119.906 104.301C119.906 104.579 113.689 108.783 113.689 108.783L113.991 109.834H115.379L116.405 109.004L118.519 108.891L118.883 107.839L121.237 107.23C121.237 107.23 124.736 106.345 125.1 106.621C125.463 106.897 126.668 107.894 126.668 107.894L129.928 107.285L131.919 105.957L133.308 105.071L134.154 104.076C134.154 104.076 135.239 104.186 135 105.128C134.76 106.07 134.513 107.12 134.513 107.12L132.641 108.06L129.262 109.278C129.262 109.278 126.907 109.333 126.365 109.169C125.822 109.004 123.649 109.169 123.649 109.169L120.994 109.223C120.994 109.223 119.062 110.054 119.062 110.773C119.062 111.492 118.821 112.598 118.821 112.598L117.191 112.986L116.225 114.202L113.931 114.535C113.931 114.535 110.914 115.587 113.749 116.084C116.584 116.582 115.317 121.949 113.386 121.949C111.455 121.949 110.613 119.514 110.613 119.514L109.527 119.624L108.925 120.952H107.113L106.483 119.845C106.483 119.845 100.958 119.955 100.958 122.611C100.958 125.267 99.3897 123.829 99.3897 123.829L98.3043 124.218L97.3386 127.482L98.6674 128.588L101.082 127.37L105.668 127.149L109.651 126.373L113.031 125.821C113.031 125.821 116.291 126.263 113.15 127.924C110.01 129.585 109.046 129.916 109.046 129.916L105.425 130.468L104.218 131.796L102.167 132.572L103.735 133.457C103.735 133.457 102.167 134.233 100.597 133.457C99.0266 132.682 99.0247 134.564 99.0247 134.564L100.715 136.887L101.922 139.321H104.094C104.094 139.321 105.784 136.556 106.389 137.551C106.993 138.546 106.147 140.539 106.147 140.539H108.44C108.44 140.539 110.734 139.876 110.734 139.321C110.734 138.767 113.39 138.436 113.39 138.436L115.924 137.884L116.044 139.212L113.388 140.539L109.525 142.2L106.628 143.861L104.817 146.738L106.267 147.843H109.164L112.907 146.072H114.838L116.167 144.523L120.03 144.19L120.754 142.42H122.322C122.322 142.42 123.529 142.972 122.203 144.523C120.876 146.074 118.46 146.072 118.46 146.072L114.356 148.507L112.787 149.945H114.599L118.338 147.843L119.184 148.728L114.838 151.051L113.268 152.379L116.165 153.043C116.165 153.043 116.889 151.163 118.46 150.83C120.03 150.497 123.771 150.055 123.771 150.055L125.461 151.161C125.461 151.161 128.599 152.379 129.565 150.94C130.53 149.5 133.064 149.059 133.064 149.059L136.444 150.278L138.617 149.945L138.737 147.399L141.514 149.169C141.514 149.169 142.599 148.284 142.903 146.846C143.206 145.409 144.774 145.409 144.774 145.409L146.586 146.184L147.914 145.851L148.639 143.417H151.777C151.777 143.417 155.037 141.313 153.828 139.876C152.619 138.438 156.001 137.995 156.001 137.995L156.121 140.099C156.121 140.099 155.638 142.09 160.466 139.104C165.294 136.117 164.209 135.12 164.209 135.12L164.329 133.792L165.897 133.571C165.897 133.571 166.863 135.008 167.465 134.566C168.068 134.123 169.999 133.347 169.999 133.347L172.657 131.908C172.657 131.908 172.776 130.247 171.811 130.247C170.845 130.247 170.362 129.472 170.362 129.472L171.811 128.477H173.379L175.554 127.482L181.589 127.039C181.589 127.039 181.469 125.49 184.123 127.039C186.776 128.588 186.659 127.26 186.659 127.26L186.778 125.823L187.381 123.5L186.659 122.945L186.539 120.953L187.866 121.285L188.468 122.945V127.039C188.468 127.039 190.4 126.818 190.519 126.263C190.639 125.709 192.088 124.493 192.088 124.493L191.122 123.165C191.122 123.165 191.968 122.058 192.69 122.501C193.413 122.944 193.536 124.05 193.536 124.05L196.07 124.271L196.794 125.599L198.606 125.49L199.691 124.052H203.917V121.727L202.349 119.847C202.349 119.847 196.555 119.626 200.659 116.306C204.763 112.986 204.522 114.202 204.522 114.202L206.573 110.661V107.01V104.907L208.141 103.912V100.48C208.141 100.48 211.64 97.1606 211.038 93.5079C210.435 89.8552 210.435 86.6469 210.435 86.6469L208.504 81.5566L206.21 81.1139L203.676 79.8958L205.244 78.3465H207.538L207.78 76.4662C207.78 76.4662 206.934 73.4775 208.021 72.925C209.108 72.3726 208.745 69.6052 207.419 69.3839C206.092 69.1626 204.763 64.8477 205.729 61.5261C206.694 58.2046 204.16 58.7605 204.16 58.7605L202.832 58.8703L201.866 56.7669L201.746 54.5536C201.746 54.5536 201.804 53.3532 203.616 53.7958C205.427 54.2385 205.669 52.6166 206.393 50.7363V50.9629L204.935 50.9541L203.345 49.9059L202.169 48.771L200.908 48.6169L198.816 49.7519L197.764 49.7678L196.435 49.9059L194.805 49.851L192.984 49.8351L192.603 48.9073L192.453 47.1969C192.453 47.1969 192.416 45.0067 190.166 44.8917C188.71 44.8173 187.566 42.2712 187.566 42.2712L184.992 39.0258C184.992 39.0258 183.437 37.627 182.311 39.5445C181.185 41.4621 181.185 42.79 181.185 42.79L180.38 46.1116L179.101 46.2568L178.449 48.1017L173.139 48.5443C173.139 48.5443 171.853 49.8723 171.048 48.3974C170.242 46.9225 167.668 46.0372 166.219 46.0372C164.771 46.0372 164.448 44.7075 164.448 44.7075L161.551 41.609L158.494 38.4468C158.494 38.4468 158.023 36.8887 160.109 35.8547C162.195 34.8207 160.109 33.4945 160.109 33.4945H164.288L166.863 31.4283C166.863 31.4283 167.989 28.9194 165.897 28.9194C163.805 28.9194 163.162 27.1488 164.128 26.8531C165.093 26.5574 166.621 25.7465 167.264 25.7465C168.471 25.7465 167.226 25.4562 169.605 25.4562L170.69 23.5262L172.701 22.8109L174.105 18.9812L175.716 14.7531C175.716 14.7531 176.801 13.2038 179.418 12.3911" fill="white"/>
<path d="M181.067 13.2516L182.373 12.6531L183.681 11.5553L185.533 10.7551L187.711 9.8556L190.11 8.95793C190.11 8.95793 192.07 8.25855 192.505 8.25855C192.939 8.25855 195.228 6.46143 195.228 6.46143L197.517 7.46003C197.517 7.46003 198.824 7.46003 201.874 7.75925C204.923 8.05848 205.252 9.45546 205.252 9.45546V11.2544L206.123 12.6531L206.994 13.6517V16.1482C206.994 16.1482 206.451 16.3483 209.827 19.4432C213.205 22.5399 212.987 23.9387 212.987 23.9387L209.499 26.5361L209.064 28.034H210.261L212.44 26.5361C212.44 26.5361 214.727 26.2369 215.49 26.4352C216.252 26.6335 217.562 29.8294 218.323 31.329C219.086 32.8269 218.323 37.8217 218.323 37.8217L214.62 41.9153H211.569L210.043 43.1139L209.278 46.5099C209.278 46.5099 206.992 47.9086 206.341 49.6048H204.852L204.363 48.3955L202.384 47.4731H200.348L198.461 48.539H197.009H196.138L194.94 48.5443H193.635L193.741 47.5846L193.66 45.961C193.66 45.961 193.681 43.7478 191.647 43.7478C189.614 43.7478 187.705 40.0597 187.705 40.0597L185.533 37.6252C185.533 37.6252 182.848 35.8936 181.83 37.6252C180.818 39.355 180.222 40.7237 180.222 40.7237L179.335 44.8562L177.927 45.1306L177.261 46.8286L173.446 47.2305C173.446 47.2305 172.257 48.3265 171.529 46.995C170.801 45.6618 169.215 45.2917 167.907 45.2245C165.696 45.1129 165.252 42.6979 164.446 42.7899L161.951 39.9871L160.288 38.1581C160.288 38.1581 160.391 36.7895 162.272 35.8546C164.157 34.9215 162.127 34.4612 162.127 34.4612L164.794 34.5727L168.61 30.851C168.61 30.851 169.711 28.3279 167.824 28.3279C165.735 28.3279 165.099 27.34 166.216 27C167.089 26.7344 167.848 26.5025 168.429 26.5025C169.379 26.5025 168.796 26.336 170.963 26.336L171.965 24.1034L173.564 23.5704L175.374 19.7283L177.07 16.0172C176.699 16.2987 178.729 13.8677 179.434 13.6499" fill="white"/>
</g>
</g>
</g>
</g>
</g>
</g>
</g>
<defs>
<clipPath id="clip0_13_149">
<rect width="316" height="274.053" fill="white"/>
</clipPath>
<clipPath id="clip1_13_149">
<rect width="315.34" height="274.275" fill="white" transform="translate(0.330078 -0.11084)"/>
</clipPath>
<clipPath id="clip2_13_149">
<rect width="315.34" height="274.275" fill="white" transform="translate(0.330078 -0.11084)"/>
</clipPath>
<clipPath id="clip3_13_149">
<rect width="315.34" height="274.275" fill="white" transform="translate(0.330078 -0.11084)"/>
</clipPath>
<clipPath id="clip4_13_149">
<rect width="315.34" height="274.275" fill="white" transform="translate(0.330078 -0.11084)"/>
</clipPath>
<clipPath id="clip5_13_149">
<rect width="315.34" height="110.821" fill="white" transform="translate(0.330078 163.344)"/>
</clipPath>
<clipPath id="clip6_13_149">
<rect width="315.34" height="110.821" fill="white" transform="translate(0.330078 163.344)"/>
</clipPath>
<clipPath id="clip7_13_149">
<rect width="315.34" height="70.5871" fill="white" transform="translate(0.330078 163.344)"/>
</clipPath>
<clipPath id="clip8_13_149">
<rect width="315.34" height="70.5871" fill="white" transform="translate(0.330078 163.344)"/>
</clipPath>
<clipPath id="clip9_13_149">
<rect width="315.34" height="29.9331" fill="white" transform="translate(0.330078 244.231)"/>
</clipPath>
<clipPath id="clip10_13_149">
<rect width="315.34" height="29.9331" fill="white" transform="translate(0.330078 244.231)"/>
</clipPath>
<clipPath id="clip11_13_149">
<rect width="121.323" height="153.154" fill="white" transform="translate(97.3386 -0.11084)"/>
</clipPath>
<clipPath id="clip12_13_149">
<rect width="121.323" height="153.154" fill="white" transform="translate(97.3386 -0.11084)"/>
</clipPath>
</defs>
</svg>
