<svg xmlns="http://www.w3.org/2000/svg" version="1.1" xmlns:xlink="http://www.w3.org/1999/xlink" xmlns:svgjs="http://svgjs.dev/svgjs" width="1000" height="560" viewBox="0 0 1000 560"><g transform="matrix(1,0,0,1,-0.6060606060606233,0.06498445382175078)"><svg viewBox="0 0 396 222" data-background-color="#c8c8c8" preserveAspectRatio="xMidYMid meet" height="560" width="1000" xmlns="http://www.w3.org/2000/svg" xmlns:xlink="http://www.w3.org/1999/xlink"><g id="tight-bounds" transform="matrix(1,0,0,1,0.2400000000000091,-0.025761694193619178)"><svg viewBox="0 0 395.52 222.05152255860543" height="222.05152255860543" width="395.52"><g><svg viewBox="0 0 397.4975999999999 223.16178017139842" height="222.05152255860543" width="395.52"><g><rect width="397.4975999999999" height="5.735498698383106" x="0" y="86.17995594209332" fill="#ffffff" opacity="1" stroke-width="0" stroke="transparent" fill-opacity="1" class="rect-o-0" data-fill-palette-color="primary" rx="1%" id="o-0" data-palette-color="#fcfcfc"></rect></g><g><rect width="397.4975999999999" height="5.735498698383106" x="0" y="99.42265188966898" fill="#ffffff" opacity="1" stroke-width="0" stroke="transparent" fill-opacity="1" class="rect-o-1" data-fill-palette-color="primary" rx="1%" id="o-1" data-palette-color="#fcfcfc"></rect></g><g transform="matrix(1,0,0,1,0.9887999999999693,120.17254508643718)"><svg viewBox="0 0 395.52 102.98923508496125" height="102.98923508496125" width="395.52"><g><svg viewBox="0 0 395.52 102.98923508496125" height="102.98923508496125" width="395.52"><g><svg viewBox="0 0 395.52 63.59983436853002" height="63.59983436853002" width="395.52"><g transform="matrix(1,0,0,1,0,0)"><svg width="395.52" viewBox="0 -34.95000076293945 217.33999633789062 34.95000076293945" height="63.59983436853002" data-palette-color="#fcfcfc"><path d="M44.3-2.15L49.15-2.15 49.15 0 38.4 0 38.4-27.3 26.2-3.05 22.9-3.05 10.75-27.3 10.75 0 0 0 0-2.15 4.85-2.15 4.85-34.95 14.05-34.95 24.6-13 35.15-34.95 44.3-34.95 44.3-2.15ZM49.15-2.15L54-2.15 54-34.95 78.55-34.95 78.55-29.4 59.9-29.4 59.9-20.15 76.65-20.15 76.65-14.9 59.9-14.9 59.9-5.55 79.15-5.55 79.15-2.15 84-2.15 84 0 49.15 0 49.15-2.15ZM81.85-2.15L86.7-2.15 86.7-34.95 111.25-34.95 111.25-29.4 92.6-29.4 92.6-20.15 109.35-20.15 109.35-14.9 92.6-14.9 92.6-5.55 111.85-5.55 111.85-2.15 116.7-2.15 116.7 0 81.85 0 81.85-2.15ZM132.59-2.15L144.74-2.15 144.74 0 114.54 0 114.54-2.15 126.69-2.15 126.69-29.55 116.09-29.55 116.09-34.95 143.19-34.95 143.19-29.55 132.59-29.55 132.59-2.15ZM172.74-2.15L183.14-2.15 183.14 0 144.74 0 144.74-2.15 155.09-2.15Q149.14-6.3 149.14-15.3L149.14-15.3 149.14-34.95 155.04-34.95 155.04-15.55Q155.04-10.75 157.44-7.95 159.84-5.15 163.94-5.15 168.04-5.15 170.44-7.95 172.84-10.75 172.84-15.55L172.84-15.55 172.84-34.95 178.74-34.95 178.74-15.3Q178.74-6.25 172.74-2.15L172.74-2.15ZM193.89-2.15L217.34-2.15 217.34 0 183.14 0 183.14-2.15 187.99-2.15 187.99-34.95 199.99-34.95Q207.94-34.95 211.59-31.9 215.24-28.85 215.24-22.5 215.24-16.15 211.51-13.2 207.79-10.25 200.09-10.25L200.09-10.25 193.89-10.25 193.89-2.15ZM200.74-15.6Q205.64-15.6 207.41-17.48 209.19-19.35 209.19-22.98 209.19-26.6 206.94-28.1 204.69-29.6 199.89-29.6L199.89-29.6 193.89-29.6 193.89-15.6 200.74-15.6Z" opacity="1" transform="matrix(1,0,0,1,0,0)" fill="#ffffff" class="undefined-text-0" data-fill-palette-color="primary" id="text-0"></path></svg></g></svg></g><g transform="matrix(1,0,0,1,98.88,78.61422886691511)"><svg viewBox="0 0 197.76 24.37500621804615" height="24.37500621804615" width="197.76"><g transform="matrix(1,0,0,1,0,0)"><svg width="197.76" viewBox="1.4500000476837158 -35.5 361.80999755859375 44.599998474121094" height="24.37500621804615" data-palette-color="#eff4f7"><path d="M3.8-12.2L3.8-12.2Q4.75-11.45 7.08-10.15 9.4-8.85 11.53-8.85 13.65-8.85 13.65-10.5L13.65-10.5Q13.65-11.25 13.05-11.83 12.45-12.4 10.85-13.15 9.25-13.9 8.45-14.33 7.65-14.75 6.33-15.73 5-16.7 4.3-17.75L4.3-17.75Q2.3-20.6 2.3-25 2.3-29.4 5.58-32.43 8.85-35.45 14.15-35.45L14.15-35.45Q17.75-35.45 20.8-34.68 23.85-33.9 23.95-32.65L23.95-32.65Q23.95-32.5 23.95-32.35L23.95-32.35Q23.95-30.6 22.85-27.93 21.75-25.25 21.3-24.95L21.3-24.95Q18.1-26.6 15.58-26.6 13.05-26.6 13.05-24.8L13.05-24.8Q13.05-23.7 14.9-22.85L14.9-22.85Q15.3-22.65 16.05-22.3 16.8-21.95 17.78-21.48 18.75-21 19.88-20.28 21-19.55 22.3-18.35L22.3-18.35Q24.95-15.85 24.95-11.75L24.95-11.75Q24.95-6.4 22-3 19.05 0.4 12.9 0.5L12.9 0.5Q9.9 0.5 7.48 0 5.05-0.5 3.25-1.95 1.45-3.4 1.45-5.45 1.45-7.5 2.2-9.53 2.95-11.55 3.8-12.2ZM37.15-16.55L37.15-0.35Q37.15 0.1 32.97 0.1 28.8 0.1 28.8-0.6L28.8-0.6 28.8-34.85Q28.8-35.2 30.35-35.35 31.9-35.5 32.95-35.5L32.95-35.5Q37.15-35.5 37.15-34.6L37.15-34.6 37.15-24.6Q39.95-25.45 41.4-25.45L41.4-25.45Q45.2-25.45 47.4-23.43 49.6-21.4 49.6-15.9L49.6-15.9 49.6-0.4Q49.6 0.05 45.7 0.05L45.7 0.05Q41.3-0.1 41.3-0.45L41.3-0.45 41.3-15.15Q41.3-17.6 39.7-17.6L39.7-17.6Q38.6-17.6 37.15-16.55L37.15-16.55ZM56.99-18.15L56.99-18.15Q55.59-20.65 55.59-22.23 55.59-23.8 56.45-24.25L56.45-24.25Q59.3-25.5 64.27-25.5 69.25-25.5 71.3-23.18 73.34-20.85 73.34-16.3L73.34-16.3 73.34-8.4 75.05-8.4Q75.89-8.4 76.37-7.4 76.84-6.4 76.84-4.65 76.84-2.9 75.97-1.2 75.09 0.5 73.59 0.5L73.59 0.5Q70.89 0.5 69.25-0.95L69.25-0.95Q68.5-1.55 68.09-2.4L68.09-2.4Q65.8 0.5 60.95 0.5L60.95 0.5Q57.3 0.5 54.8-2.1 52.3-4.7 52.3-8.25L52.3-8.25Q52.3-16.4 62.05-16.4L62.05-16.4 64.8-16.4 64.8-16.9Q64.8-18.2 64.37-18.57 63.95-18.95 62.39-18.95L62.39-18.95Q60.49-18.95 56.99-18.15ZM60.99-8.95L60.99-8.95Q60.99-7.85 61.59-7.28 62.2-6.7 63.12-6.7 64.05-6.7 64.8-7.45L64.8-7.45 64.8-11.3 63.39-11.3Q60.99-11.3 60.99-8.95ZM90.64-14L90.64-0.05Q90.64 0.3 86.09 0.3L86.09 0.3Q81.54 0.2 81.54-0.1L81.54-0.1 81.54-16.7 80.19-16.7Q79.39-16.7 78.92-17.68 78.44-18.65 78.44-20.1L78.44-20.1Q78.44-25.5 81.64-25.5L81.64-25.5Q83.89-25.5 85.39-24.13 86.89-22.75 86.89-21L86.89-21Q87.94-23.05 89.72-24.28 91.49-25.5 93.34-25.5L93.34-25.5Q96.24-25.5 96.84-24L96.84-24Q96.99-23.6 96.99-22.83 96.99-22.05 96.52-20.05 96.04-18.05 95.54-17.15 95.04-16.25 94.94-16.25 94.84-16.25 94.02-16.63 93.19-17 92.54-17L92.54-17Q90.64-17 90.64-14L90.64-14ZM118.39-1.35L118.39-1.35Q115.24 0.5 110.29 0.5 105.34 0.5 101.94-2.88 98.54-6.25 98.54-12.23 98.54-18.2 101.81-21.85 105.09-25.5 110.09-25.5 115.09-25.5 117.81-22.95 120.54-20.4 120.54-16.75L120.54-16.75Q120.54-8.65 111.24-8.65L111.24-8.65 107.79-8.65Q107.79-7.15 108.61-6.58 109.44-6 111.04-6L111.04-6Q114.54-6 117.69-7.6L117.69-7.6Q117.74-7.65 118.14-6.9L118.14-6.9Q119.34-4.75 119.34-3.28 119.34-1.8 118.39-1.35ZM112.14-15.8L112.14-15.8Q112.14-17.9 110.09-17.9L110.09-17.9Q109.14-17.9 108.47-17.32 107.79-16.75 107.79-15.65L107.79-15.65 107.79-14.1 110.49-14.1Q112.14-14.1 112.14-15.8ZM139.94-2L131.44-24.75Q131.44-25.3 136.01-25.3 140.59-25.3 140.74-24.8L140.74-24.8 144.34-13 147.78-24.9Q147.99-25.3 150.88-25.3L150.88-25.3Q157.53-25.3 157.24-24.65L157.24-24.65 145.49 8.8Q145.44 9.1 142.76 9.1 140.09 9.1 137.78 8.93 135.49 8.75 135.59 8.5L135.59 8.5 139.94-2ZM162.21-2.95Q159.08-6.4 159.08-12.5 159.08-18.6 162.21-22.05 165.33-25.5 170.63-25.5 175.93-25.5 179.03-22.05 182.13-18.6 182.13-12.5 182.13-6.4 179.03-2.95 175.93 0.5 170.63 0.5 165.33 0.5 162.21-2.95ZM170.66-17.15Q167.83-17.15 167.83-12.55 167.83-7.95 170.66-7.95 173.48-7.95 173.48-12.55 173.48-17.15 170.66-17.15ZM185.43-9.95L185.43-24.7Q185.43-25.25 189.73-25.25 194.03-25.25 194.03-24.7L194.03-24.7 194.03-10.1Q194.03-7.6 195.63-7.6L195.63-7.6Q196.83-7.6 198.33-8.65L198.33-8.65 198.33-24.7Q198.33-25.2 202.58-25.2 206.83-25.2 206.83-24.7L206.83-24.7 206.83-8.3 208.13-8.3Q209.83-8.3 209.83-5.05L209.83-5.05Q209.83-3.4 209.13-1.7L209.13-1.7Q208.13 0.5 206.43 0.5L206.43 0.5Q203.08 0.5 201.48-2.25L201.48-2.25 201.43-2.2Q198.38 0.5 194.88 0.5L194.88 0.5Q190.03 0.5 187.73-1.93 185.43-4.35 185.43-9.95L185.43-9.95ZM223.83-14L223.83-0.05Q223.83 0.3 219.28 0.3L219.28 0.3Q214.73 0.2 214.73-0.1L214.73-0.1 214.73-16.7 213.38-16.7Q212.58-16.7 212.1-17.68 211.63-18.65 211.63-20.1L211.63-20.1Q211.63-25.5 214.83-25.5L214.83-25.5Q217.08-25.5 218.58-24.13 220.08-22.75 220.08-21L220.08-21Q221.13-23.05 222.9-24.28 224.68-25.5 226.53-25.5L226.53-25.5Q229.43-25.5 230.03-24L230.03-24Q230.18-23.6 230.18-22.83 230.18-22.05 229.7-20.05 229.23-18.05 228.73-17.15 228.23-16.25 228.13-16.25 228.03-16.25 227.2-16.63 226.38-17 225.73-17L225.73-17Q223.83-17 223.83-14L223.83-14ZM264.72-16.3L264.72-0.25Q264.72 0.1 260.45 0.1 256.17 0.1 256.17-0.35L256.17-0.35 256.17-14.9Q256.17-17.4 254.52-17.4L254.52-17.4Q253.67-17.4 252.27-16.3L252.27-16.3 252.27-0.3Q252.27 0.2 248 0.2 243.72 0.2 243.72-0.35L243.72-0.35 243.72-16.7 242.47-16.7Q240.82-16.7 240.82-20.15L240.82-20.15Q240.82-21.7 241.42-23.3L241.42-23.3Q242.22-25.5 244.02-25.5 245.82-25.5 247.5-24.55 249.17-23.6 249.52-22.75L249.52-22.75Q252.62-25.5 256.4-25.5 260.17-25.5 262.47-23.15L262.47-23.15Q265.17-25.5 268.97-25.5L268.97-25.5Q277.22-25.5 277.22-15.45L277.22-15.45 277.22-0.25Q277.22 0.1 272.95 0.1 268.67 0.1 268.67-0.35L268.67-0.35 268.67-14.9Q268.67-17.4 267.02-17.4L267.02-17.4Q266.12-17.4 264.72-16.3L264.72-16.3ZM281.22-9.95L281.22-24.7Q281.22-25.25 285.52-25.25 289.82-25.25 289.82-24.7L289.82-24.7 289.82-10.1Q289.82-7.6 291.42-7.6L291.42-7.6Q292.62-7.6 294.12-8.65L294.12-8.65 294.12-24.7Q294.12-25.2 298.37-25.2 302.62-25.2 302.62-24.7L302.62-24.7 302.62-8.3 303.92-8.3Q305.62-8.3 305.62-5.05L305.62-5.05Q305.62-3.4 304.92-1.7L304.92-1.7Q303.92 0.5 302.22 0.5L302.22 0.5Q298.87 0.5 297.27-2.25L297.27-2.25 297.22-2.2Q294.17 0.5 290.67 0.5L290.67 0.5Q285.82 0.5 283.52-1.93 281.22-4.35 281.22-9.95L281.22-9.95ZM309.72-9L309.72-9Q313.77-6.55 316.12-6.55L316.12-6.55Q317.62-6.55 317.62-7.6L317.62-7.6Q317.62-8.35 315.02-9.55L315.02-9.55Q308.77-12.1 308.77-17.9L308.77-17.9Q308.77-21.6 311.47-23.55 314.17-25.5 317.94-25.5 321.72-25.5 324.34-24.7 326.97-23.9 326.97-22.6L326.97-22.6Q326.97-21.5 325.89-19.7 324.82-17.9 324.42-17.75L324.42-17.75Q322.27-18.95 319.77-18.95L319.77-18.95Q318.42-18.95 318.42-18L318.42-18Q318.42-17.4 318.94-16.98 319.47-16.55 320.87-15.93 322.27-15.3 323.19-14.8 324.12-14.3 325.27-13.4L325.27-13.4Q327.67-11.5 327.67-8.45L327.67-8.45Q327.67-4.45 325.02-1.98 322.37 0.5 317.02 0.5L317.02 0.5Q313.47 0.5 310.57-0.7 307.67-1.9 307.67-4L307.67-4Q307.67-5.4 308.34-6.95 309.02-8.5 309.72-9ZM340.31-24.85L340.31-0.3Q340.31 0.1 335.74 0.1 331.17 0.1 331.17-0.25L331.17-0.25 331.17-24.8Q331.17-25.15 335.74-25.15 340.31-25.15 340.31-24.85L340.31-24.85ZM340.31-35.15L340.31-27.8Q340.31-27.45 335.74-27.45 331.17-27.45 331.17-27.75L331.17-27.75 331.17-34.95Q331.17-35.45 335.74-35.45 340.31-35.45 340.31-35.15L340.31-35.15ZM353.01-12.4L353.01-12.4Q353.01-7.5 356.71-7.5L356.71-7.5Q359.11-7.5 360.71-8.45L360.71-8.45Q361.46-8.45 361.94-5.88 362.41-3.3 362.41-2.38 362.41-1.45 362.16-1.15L362.16-1.15Q359.51 0.5 354.91 0.5 350.31 0.5 347.09-2.93 343.86-6.35 343.86-12.28 343.86-18.2 347.04-21.85 350.21-25.5 355.49-25.5 360.76-25.5 362.81-22.95L362.81-22.95Q363.26-22.4 363.26-21.33 363.26-20.25 362.86-18.7L362.86-18.7Q361.96-15.5 360.51-15L360.51-15Q360.31-14.95 359.94-14.95 359.56-14.95 359.01-15.55L359.01-15.55Q357.06-17.5 355.89-17.5 354.71-17.5 353.86-16.3 353.01-15.1 353.01-12.4Z" opacity="1" transform="matrix(1,0,0,1,0,0)" fill="#ffffff" class="undefined-text-1" data-fill-palette-color="secondary" id="text-1"></path></svg></g></svg></g></svg></g></svg></g><g transform="matrix(1,0,0,1,151.00856919817903,0)"><svg viewBox="0 0 95.48046160364188 71.16556144370823" height="71.16556144370823" width="95.48046160364188"><g><svg xmlns="http://www.w3.org/2000/svg" xmlns:xlink="http://www.w3.org/1999/xlink" version="1.1" x="0" y="0" viewBox="10 20 80.5 60" enable-background="new 0 0 100 100" xml:space="preserve" height="71.16556144370823" width="95.48046160364188" class="icon-icon-0" data-fill-palette-color="accent" id="icon-0"><path d="M90 30c0-5.5-4.5-10-10-10-3.7 0-6.9 2-8.7 5H28.7c-1.7-3-5-5-8.7-5-5.5 0-10 4.5-10 10 0 5.5 4.5 10 10 10 3.7 0 6.9-2 8.7-5h42.7c1.7 3 5 5 8.7 5C85.5 40 90 35.5 90 30zM20 36c-3.3 0-6-2.7-6-6s2.7-6 6-6 6 2.7 6 6S23.3 36 20 36zM80 36c-3.3 0-6-2.7-6-6s2.7-6 6-6 6 2.7 6 6S83.3 36 80 36zM80 40L69.5 58.2H75V60c0 1.5-0.5 5-5 5H28.7c-1.7-3-5-5-8.7-5-5.5 0-10 4.5-10 10 0 5.5 4.5 10 10 10 3.7 0 6.9-2 8.7-5H70c11 0 15-9 15-15v-1.8h5.5L80 40zM20 76c-3.3 0-6-2.7-6-6s2.7-6 6-6 6 2.7 6 6S23.3 76 20 76z" fill="#ffffff" data-fill-palette-color="accent"></path></svg></g></svg></g><g></g></svg></g><defs></defs></svg><rect width="395.52" height="222.05152255860543" fill="none" stroke="none" visibility="hidden"></rect></g></svg></g></svg>