<svg width="122" height="44" viewBox="0 0 122 44" fill="none" xmlns="http://www.w3.org/2000/svg">
<g clip-path="url(#clip0_2_77)">
<g clip-path="url(#clip1_2_77)">
<g clip-path="url(#clip2_2_77)">
<g clip-path="url(#clip3_2_77)">
<path d="M3.89016 0V27.6447H0.0136719V0H3.89016ZM10.3785 7.09976H13.9161L14.0318 9.68149C15.7014 7.7115 17.8808 6.7265 20.5698 6.7265C25.1874 6.7265 27.5155 9.17344 27.5541 14.0673V27.6447H23.8181V14.0518C23.8071 12.5691 23.4489 11.4752 22.7436 10.7702C22.0383 10.0599 20.939 9.70482 19.4457 9.70482C18.2334 9.70482 17.1699 10.0081 16.2552 10.6147C15.3405 11.2212 14.6269 12.0196 14.1145 13.0098V27.6447H10.3785V7.09976ZM34.5135 2.1307H38.2495V7.09976H42.3244V9.82147H38.2495V22.559C38.2495 23.3782 38.4314 23.9951 38.795 24.4098C39.1587 24.8194 39.7759 25.0241 40.6465 25.0241C41.0763 25.0241 41.6686 24.949 42.4236 24.7986V27.6447C41.4427 27.8988 40.4867 28.0258 39.5555 28.0258C37.8913 28.0258 36.635 27.5514 35.7864 26.6027C34.9378 25.654 34.5135 24.3061 34.5135 22.559V9.82147H30.5379V7.09976H34.5135V2.1307ZM47.2671 0H52.2677L61.8721 22.559L71.4765 0H76.5019V27.6447H72.6337V16.8823L72.9974 5.26455L63.3516 27.6447H60.3843L50.7551 5.31899L51.1436 16.8823V27.6447H47.2671V0ZM96.3224 27.6447L96.2397 25.6151C94.785 27.2222 92.6525 28.0258 89.8423 28.0258C87.517 28.0258 85.7454 27.3881 84.5276 26.1128C83.3099 24.8427 82.6927 22.9608 82.6762 20.4672V7.09976H86.4121V20.3739C86.4121 23.4896 87.7566 25.0475 90.4457 25.0475C93.3 25.0475 95.1983 24.0469 96.1405 22.0458V7.09976H99.8682V27.6447H96.3224ZM118.251 22.1936C118.251 21.2449 117.87 20.5087 117.11 19.9851C116.35 19.4615 115.024 19.0079 113.134 18.6242C111.244 18.2458 109.745 17.7922 108.638 17.2634C107.525 16.7294 106.704 16.0944 106.175 15.3582C105.646 14.6272 105.381 13.7537 105.381 12.7376C105.381 11.0579 106.136 9.63484 107.646 8.46839C109.161 7.30713 111.095 6.7265 113.448 6.7265C115.922 6.7265 117.931 7.32787 119.474 8.5306C121.011 9.72815 121.78 11.2653 121.78 13.1419H118.027C118.027 12.1777 117.595 11.3482 116.73 10.6535C115.859 9.95885 114.765 9.61151 113.448 9.61151C112.093 9.61151 111.029 9.88886 110.258 10.4436C109.492 11.0035 109.109 11.7318 109.109 12.6287C109.109 13.4737 109.467 14.1114 110.183 14.5417C110.894 14.972 112.181 15.3841 114.043 15.7781C115.906 16.1721 117.416 16.6413 118.573 17.1856C119.73 17.73 120.59 18.3832 121.152 19.1453C121.708 19.9125 121.987 20.8483 121.987 21.9525C121.987 23.7877 121.207 25.2574 119.647 26.3617C118.082 27.4711 116.057 28.0258 113.572 28.0258C111.82 28.0258 110.272 27.7355 108.927 27.1548C107.583 26.569 106.53 25.7551 105.77 24.7131C105.009 23.6659 104.629 22.5357 104.629 21.3226H108.365C108.431 22.4994 108.933 23.4326 109.869 24.1221C110.801 24.8116 112.035 25.1563 113.572 25.1563C114.983 25.1563 116.115 24.8868 116.969 24.3476C117.824 23.8136 118.251 23.0956 118.251 22.1936Z" fill="white"/>
</g>
</g>
<g clip-path="url(#clip4_2_77)">
<g clip-path="url(#clip5_2_77)">
<path d="M0.852898 43.7925H0.00708008V32.3923H0.852898V43.7925ZM5.13715 43.7925H4.3281V35.4888H5.02682L5.10037 36.769H5.15553C5.60909 36.3423 6.0749 35.987 6.55297 35.7033C7.03104 35.4219 7.57653 35.2812 8.18945 35.2812C9.10881 35.2812 9.78301 35.5407 10.2121 36.0597C10.6411 36.5787 10.8556 37.3802 10.8556 38.4643V43.7925H10.0466V38.5681C10.0466 37.6801 9.88966 37.025 9.57585 36.6029C9.26449 36.1831 8.74719 35.9732 8.02396 35.9732C7.49686 35.9732 7.01878 36.1024 6.58975 36.3607C6.16071 36.6214 5.67651 37.0112 5.13715 37.5301V43.7925ZM16.5189 44.0001C16.0899 44.0001 15.7344 43.9401 15.4524 43.8201C15.1705 43.6979 14.9437 43.5272 14.7721 43.3081C14.6005 43.089 14.4804 42.8237 14.4117 42.5123C14.3455 42.2009 14.3124 41.8607 14.3124 41.4917V36.1462H12.9334V35.558L14.3308 35.4888L14.4411 33.0842H15.1399V35.4888H17.6957V36.1462H15.1399V41.5609C15.1399 41.8261 15.1607 42.0648 15.2024 42.2771C15.2465 42.4916 15.3237 42.6761 15.4341 42.8306C15.5444 42.9875 15.6939 43.1086 15.8827 43.1939C16.0739 43.2816 16.3228 43.3254 16.6292 43.3254C16.8008 43.3254 16.9872 43.2989 17.1882 43.2458C17.3917 43.1951 17.5731 43.1351 17.7325 43.0659L17.9531 43.6887C17.6957 43.7809 17.4383 43.8559 17.1809 43.9136C16.9234 43.9712 16.7028 44.0001 16.5189 44.0001ZM22.9876 44.0001C22.4237 44.0001 21.8941 43.902 21.3989 43.706C20.9012 43.5099 20.4685 43.2239 20.1008 42.8479C19.733 42.4743 19.4425 42.0187 19.2292 41.4813C19.0135 40.9462 18.9056 40.3384 18.9056 39.6579C18.9056 38.9775 19.0135 38.3663 19.2292 37.8242C19.4425 37.2822 19.7306 36.8232 20.0934 36.4472C20.4538 36.0735 20.8645 35.7852 21.3254 35.5822C21.7838 35.3816 22.2582 35.2812 22.7485 35.2812C23.8027 35.2812 24.6302 35.6157 25.2308 36.2846C25.8315 36.9535 26.1318 37.8992 26.1318 39.1217C26.1318 39.2255 26.1318 39.3293 26.1318 39.4331C26.1318 39.5369 26.1196 39.6406 26.095 39.7444H19.733C19.7453 40.2634 19.8311 40.7443 19.9904 41.1872C20.1498 41.6324 20.3741 42.0129 20.6634 42.3289C20.9503 42.6473 21.2959 42.8952 21.7005 43.0728C22.105 43.2527 22.5585 43.3427 23.0611 43.3427C23.5392 43.3427 23.9719 43.2758 24.3593 43.142C24.7442 43.0105 25.1021 42.8295 25.4331 42.5988L25.7641 43.187C25.4086 43.383 25.02 43.5676 24.5983 43.7406C24.1742 43.9136 23.6373 44.0001 22.9876 44.0001ZM19.733 39.1217H25.3595C25.3595 38.0491 25.1266 37.2499 24.6608 36.724C24.195 36.2004 23.5637 35.9386 22.7669 35.9386C22.3869 35.9386 22.0253 36.0101 21.6821 36.1531C21.3388 36.2984 21.0299 36.5095 20.7554 36.7863C20.4783 37.0631 20.2515 37.3975 20.075 37.7896C19.8961 38.1817 19.7821 38.6258 19.733 39.1217ZM29.3312 43.7925H28.5222V35.4888H29.2209L29.2944 37.0285H29.3496C29.6438 36.5095 30.003 36.0885 30.4271 35.7656C30.8488 35.4427 31.3232 35.2812 31.8503 35.2812C32.0219 35.2812 32.1751 35.2928 32.31 35.3158C32.4448 35.3389 32.5858 35.385 32.7329 35.4542L32.549 36.1462C32.4019 36.0885 32.2732 36.0505 32.1629 36.032C32.0525 36.0159 31.9116 36.0078 31.74 36.0078C31.3477 36.0078 30.9346 36.1658 30.5006 36.4818C30.0642 36.8001 29.6744 37.3514 29.3312 38.1356V43.7925ZM35.8955 44.0001C35.54 44.0001 35.209 43.9539 34.9026 43.8617C34.5961 43.7694 34.3264 43.631 34.0935 43.4465C33.8606 43.262 33.6768 43.0255 33.5419 42.7372C33.4071 42.4489 33.3396 42.1087 33.3396 41.7166C33.3396 40.7939 33.7957 40.0927 34.7077 39.613C35.6221 39.1355 37.0661 38.793 39.0397 38.5854C39.0397 38.274 39.0152 37.9592 38.9662 37.6409C38.9171 37.3249 38.8129 37.0423 38.6536 36.7932C38.4942 36.5464 38.2797 36.3446 38.01 36.1877C37.7404 36.0332 37.3849 35.9559 36.9436 35.9559C36.3552 35.9559 35.8158 36.0655 35.3255 36.2846C34.8352 36.5037 34.4368 36.7171 34.1303 36.9247L33.7626 36.3538C33.9219 36.25 34.1144 36.1347 34.3399 36.0078C34.5679 35.8809 34.8229 35.7656 35.1048 35.6618C35.3868 35.558 35.6932 35.4681 36.0242 35.392C36.3552 35.3181 36.6984 35.2812 37.0539 35.2812C37.5687 35.2812 38.0039 35.3643 38.3594 35.5303C38.7149 35.6987 39.0029 35.9271 39.2236 36.2154C39.4442 36.5037 39.6036 36.8405 39.7017 37.2257C39.7997 37.6132 39.8488 38.0318 39.8488 38.4816V43.7925H39.15L39.0765 42.7199H39.0213C38.5678 43.0544 38.0799 43.3508 37.5577 43.6091C37.038 43.8697 36.4839 44.0001 35.8955 44.0001ZM36.0426 43.3427C36.5574 43.3427 37.0478 43.2274 37.5136 42.9967C37.9794 42.766 38.4881 42.4316 39.0397 41.9933V39.1736C38.1326 39.2774 37.3665 39.4042 36.7413 39.5542C36.1161 39.7041 35.6135 39.8828 35.2335 40.0904C34.8535 40.298 34.5802 40.5344 34.4135 40.7997C34.2492 41.065 34.1671 41.359 34.1671 41.682C34.1671 41.9818 34.2161 42.2355 34.3142 42.4431C34.4122 42.6507 34.5471 42.8202 34.7187 42.9517C34.8903 43.0855 35.0889 43.1835 35.3144 43.2458C35.5424 43.3104 35.7852 43.3427 36.0426 43.3427ZM46.2659 44.0001C45.6898 44.0001 45.159 43.902 44.6736 43.706C44.1906 43.5099 43.7677 43.2274 43.4049 42.8583C43.0445 42.4893 42.7625 42.036 42.5591 41.4986C42.358 40.9635 42.2575 40.3499 42.2575 39.6579C42.2575 38.966 42.3678 38.3467 42.5885 37.8C42.8091 37.251 43.1033 36.792 43.4711 36.423C43.8388 36.0539 44.2642 35.7714 44.7472 35.5753C45.2326 35.3793 45.745 35.2812 46.2843 35.2812C46.8972 35.2812 47.406 35.385 47.8105 35.5926C48.215 35.8002 48.5705 36.0366 48.8769 36.3019L48.3989 36.8382C48.1169 36.5844 47.8044 36.3734 47.4611 36.205C47.1179 36.0389 46.7318 35.9559 46.3027 35.9559C45.8492 35.9559 45.4287 36.0447 45.0413 36.2223C44.6564 36.4022 44.3193 36.656 44.03 36.9835C43.7432 37.3133 43.5164 37.7031 43.3497 38.1529C43.1855 38.6027 43.1033 39.1044 43.1033 39.6579C43.1033 40.2 43.1793 40.6959 43.3313 41.1457C43.4858 41.5955 43.7003 41.9818 43.9749 42.3047C44.2519 42.6276 44.589 42.8779 44.9862 43.0555C45.3858 43.2354 45.8247 43.3254 46.3027 43.3254C46.7685 43.3254 47.2 43.2331 47.5972 43.0486C47.9968 42.8641 48.3498 42.6392 48.6563 42.3739L49.0792 42.9102C48.6992 43.2216 48.2763 43.4811 47.8105 43.6887C47.3447 43.8963 46.8298 44.0001 46.2659 44.0001ZM53.4701 44.0001C53.0411 44.0001 52.6856 43.9401 52.4036 43.8201C52.1217 43.6979 51.8949 43.5272 51.7233 43.3081C51.5517 43.089 51.4328 42.8237 51.3666 42.5123C51.2979 42.2009 51.2636 41.8607 51.2636 41.4917V36.1462H49.8846V35.558L51.282 35.4888L51.3923 33.0842H52.0911V35.4888H54.6469V36.1462H52.0911V41.5609C52.0911 41.8261 52.1131 42.0648 52.1572 42.2771C52.1989 42.4916 52.2749 42.6761 52.3853 42.8306C52.4956 42.9875 52.6463 43.1086 52.8376 43.1939C53.0264 43.2816 53.274 43.3254 53.5804 43.3254C53.752 43.3254 53.9396 43.2989 54.1431 43.2458C54.3441 43.1951 54.5243 43.1351 54.6837 43.0659L54.9043 43.6887C54.6469 43.7809 54.3895 43.8559 54.132 43.9136C53.8746 43.9712 53.654 44.0001 53.4701 44.0001ZM57.6073 43.7925H56.7982V35.4888H57.6073V43.7925ZM57.2211 33.4821C57.0127 33.4821 56.8387 33.4187 56.6989 33.2918C56.5567 33.165 56.4856 33.0035 56.4856 32.8074C56.4856 32.5883 56.5567 32.4176 56.6989 32.2954C56.8387 32.1754 57.0127 32.1155 57.2211 32.1155C57.4295 32.1155 57.6048 32.1754 57.747 32.2954C57.8867 32.4176 57.9566 32.5883 57.9566 32.8074C57.9566 33.0035 57.8867 33.165 57.747 33.2918C57.6048 33.4187 57.4295 33.4821 57.2211 33.4821ZM63.8038 43.7925H62.8476L59.5379 35.4888H60.4205L62.4063 40.6959C62.5412 41.0995 62.6883 41.5032 62.8476 41.9068C63.007 42.3105 63.1541 42.7026 63.2889 43.0832H63.3625C63.5096 42.7026 63.6591 42.3105 63.8111 41.9068C63.9656 41.5032 64.1164 41.0995 64.2635 40.6959L66.2493 35.4888H67.0767L63.8038 43.7925ZM72.3355 44.0001C71.7716 44.0001 71.2409 43.902 70.7432 43.706C70.2479 43.5099 69.8164 43.2239 69.4487 42.8479C69.0809 42.4743 68.7892 42.0187 68.5735 41.4813C68.3602 40.9462 68.2535 40.3384 68.2535 39.6579C68.2535 38.9775 68.3602 38.3663 68.5735 37.8242C68.7892 37.2822 69.0773 36.8232 69.4377 36.4472C69.8005 36.0735 70.2112 35.7852 70.6696 35.5822C71.1305 35.3816 71.6061 35.2812 72.0965 35.2812C73.1507 35.2812 73.9781 35.6157 74.5788 36.2846C75.1794 36.9535 75.4798 37.8992 75.4798 39.1217C75.4798 39.2255 75.4798 39.3293 75.4798 39.4331C75.4798 39.5369 75.4675 39.6406 75.443 39.7444H69.0809C69.0932 40.2634 69.179 40.7443 69.3384 41.1872C69.4977 41.6324 69.7208 42.0129 70.0077 42.3289C70.297 42.6473 70.6439 42.8952 71.0484 43.0728C71.4529 43.2527 71.9065 43.3427 72.4091 43.3427C72.8871 43.3427 73.3186 43.2758 73.7035 43.142C74.0909 43.0105 74.4501 42.8295 74.781 42.5988L75.112 43.187C74.7565 43.383 74.3667 43.5676 73.9426 43.7406C73.5209 43.9136 72.9852 44.0001 72.3355 44.0001ZM69.0809 39.1217H74.7075C74.7075 38.0491 74.4746 37.2499 74.0088 36.724C73.5429 36.2004 72.9116 35.9386 72.1149 35.9386C71.7349 35.9386 71.3732 36.0101 71.03 36.1531C70.6868 36.2984 70.3766 36.5095 70.0996 36.7863C69.825 37.0631 69.5983 37.3975 69.4193 37.7896C69.2428 38.1817 69.13 38.6258 69.0809 39.1217ZM82.4265 43.7925H81.6358V32.3923H82.831L85.3685 39.0871C85.5278 39.5023 85.6872 39.9197 85.8465 40.3395C86.0059 40.7616 86.1652 41.186 86.3246 41.6128H86.3981C86.5575 41.186 86.7107 40.7616 86.8578 40.3395C87.0049 39.9197 87.1582 39.5023 87.3175 39.0871L89.8366 32.3923H91.0501V43.7925H90.2227V36.3019C90.2227 35.829 90.235 35.3181 90.2595 34.7692C90.284 34.2225 90.3085 33.707 90.333 33.2226H90.2595L89.3217 35.7656L86.7107 42.5469H85.9752L83.3458 35.7656L82.3897 33.2226H82.3162C82.3407 33.707 82.3652 34.2225 82.3897 34.7692C82.4142 35.3181 82.4265 35.829 82.4265 36.3019V43.7925ZM97.0628 44.0001C96.1434 44.0001 95.4692 43.7406 95.0402 43.2216C94.6112 42.7026 94.3966 41.9011 94.3966 40.817V35.4888H95.2057V40.7132C95.2057 41.6012 95.3614 42.2551 95.6727 42.6749C95.9865 43.097 96.4989 43.3081 97.2099 43.3081C97.737 43.3081 98.2151 43.172 98.6441 42.8998C99.0732 42.63 99.5451 42.2009 100.06 41.6128V35.4888H100.869V43.7925H100.189L100.097 42.4085H100.06C99.6309 42.8929 99.1774 43.2793 98.6993 43.5676C98.2212 43.8559 97.6757 44.0001 97.0628 44.0001ZM106.385 44.0001C105.723 44.0001 105.116 43.887 104.565 43.661C104.013 43.4373 103.541 43.1697 103.149 42.8583L103.627 42.2874C104.007 42.5873 104.412 42.8375 104.841 43.0382C105.27 43.2412 105.803 43.3427 106.44 43.3427C107.139 43.3427 107.662 43.1778 108.011 42.8479C108.361 42.5204 108.537 42.1375 108.537 41.6993C108.537 41.4455 108.472 41.2206 108.342 41.0246C108.214 40.8285 108.046 40.6613 107.838 40.5229C107.629 40.3845 107.399 40.2634 107.146 40.1596C106.896 40.0558 106.643 39.9578 106.385 39.8655C106.054 39.7502 105.72 39.6291 105.381 39.5023C105.045 39.3754 104.743 39.222 104.473 39.0421C104.203 38.8645 103.985 38.6511 103.818 38.402C103.654 38.1552 103.572 37.8531 103.572 37.4955C103.572 37.1957 103.633 36.9097 103.756 36.6375C103.878 36.3676 104.062 36.1312 104.307 35.9282C104.553 35.7276 104.849 35.5696 105.197 35.4542C105.548 35.3389 105.956 35.2812 106.422 35.2812C106.888 35.2812 107.344 35.362 107.79 35.5234C108.239 35.6849 108.622 35.8925 108.941 36.1462L108.5 36.6825C108.206 36.4749 107.893 36.2984 107.562 36.1531C107.231 36.0101 106.839 35.9386 106.385 35.9386C106.042 35.9386 105.748 35.9813 105.503 36.0666C105.257 36.1543 105.051 36.2673 104.885 36.4057C104.721 36.5441 104.598 36.7055 104.517 36.8901C104.439 37.0746 104.399 37.2591 104.399 37.4436C104.399 37.6858 104.457 37.8911 104.572 38.0595C104.69 38.2256 104.847 38.372 105.043 38.4989C105.239 38.6258 105.462 38.7376 105.712 38.8345C105.965 38.9337 106.22 39.0294 106.477 39.1217C106.82 39.2485 107.164 39.3754 107.507 39.5023C107.85 39.6291 108.159 39.7848 108.434 39.9693C108.711 40.1539 108.935 40.3811 109.107 40.6509C109.278 40.9231 109.364 41.261 109.364 41.6647C109.364 41.976 109.299 42.2724 109.169 42.5538C109.042 42.8375 108.849 43.0855 108.592 43.2977C108.334 43.5122 108.022 43.6829 107.654 43.8098C107.286 43.9366 106.863 44.0001 106.385 44.0001ZM112.504 43.7925H111.695V35.4888H112.504V43.7925ZM112.118 33.4821C111.91 33.4821 111.736 33.4187 111.596 33.2918C111.454 33.165 111.383 33.0035 111.383 32.8074C111.383 32.5883 111.454 32.4176 111.596 32.2954C111.736 32.1754 111.91 32.1155 112.118 32.1155C112.327 32.1155 112.502 32.1754 112.644 32.2954C112.784 32.4176 112.854 32.5883 112.854 32.8074C112.854 33.0035 112.784 33.165 112.644 33.2918C112.502 33.4187 112.327 33.4821 112.118 33.4821ZM119.179 44.0001C118.603 44.0001 118.073 43.902 117.59 43.706C117.105 43.5099 116.682 43.2274 116.322 42.8583C115.959 42.4893 115.677 42.036 115.476 41.4986C115.272 40.9635 115.171 40.3499 115.171 39.6579C115.171 38.966 115.281 38.3467 115.502 37.8C115.722 37.251 116.016 36.792 116.384 36.423C116.752 36.0539 117.179 35.7714 117.664 35.5753C118.147 35.3793 118.658 35.2812 119.197 35.2812C119.81 35.2812 120.319 35.385 120.724 35.5926C121.128 35.8002 121.484 36.0366 121.79 36.3019L121.312 36.8382C121.03 36.5844 120.718 36.3734 120.374 36.205C120.031 36.0389 119.645 35.9559 119.216 35.9559C118.762 35.9559 118.343 36.0447 117.958 36.2223C117.571 36.4022 117.234 36.656 116.947 36.9835C116.658 37.3133 116.431 37.7031 116.267 38.1529C116.1 38.6027 116.016 39.1044 116.016 39.6579C116.016 40.2 116.094 40.6959 116.248 41.1457C116.4 41.5955 116.615 41.9818 116.892 42.3047C117.166 42.6276 117.503 42.8779 117.903 43.0555C118.3 43.2354 118.738 43.3254 119.216 43.3254C119.682 43.3254 120.114 43.2331 120.514 43.0486C120.911 42.8641 121.263 42.6392 121.569 42.3739L121.992 42.9102C121.612 43.2216 121.189 43.4811 120.724 43.6887C120.258 43.8963 119.743 44.0001 119.179 44.0001Z" fill="white"/>
</g>
</g>
</g>
</g>
<defs>
<clipPath id="clip0_2_77">
<rect width="122" height="44" fill="white"/>
</clipPath>
<clipPath id="clip1_2_77">
<rect width="122" height="44" fill="white"/>
</clipPath>
<clipPath id="clip2_2_77">
<rect width="122" height="28.0258" fill="white"/>
</clipPath>
<clipPath id="clip3_2_77">
<rect width="122" height="28.0258" fill="white"/>
</clipPath>
<clipPath id="clip4_2_77">
<rect width="122" height="11.8846" fill="white" transform="translate(0 32.1155)"/>
</clipPath>
<clipPath id="clip5_2_77">
<rect width="122" height="11.8846" fill="white" transform="translate(0 32.1155)"/>
</clipPath>
</defs>
</svg>
