<svg xmlns="http://www.w3.org/2000/svg" version="1.1" xmlns:xlink="http://www.w3.org/1999/xlink" xmlns:svgjs="http://svgjs.dev/svgjs" width="128" height="128" viewBox="0 0 128 128"><g transform="matrix(0.8046875,0,0,0.8046875,12.760752631578946,25.866689334375828)"><svg viewBox="0 0 95 71" data-background-color="#c8c8c8" preserveAspectRatio="xMidYMid meet" height="95" width="128" xmlns="http://www.w3.org/2000/svg" xmlns:xlink="http://www.w3.org/1999/xlink"><g id="tight-bounds" transform="matrix(1,0,0,1,-0.24049999999999727,-0.08298136645963439)"><svg viewBox="0 0 95.481 71.16596273291925" height="71.16596273291925" width="95.481"><g><svg viewBox="0 0 95.481 71.16596273291925" height="71.16596273291925" width="95.481"><g><svg viewBox="0 0 95.481 71.16596273291925" height="71.16596273291925" width="95.481"><g><svg viewBox="0 0 95.481 71.16596273291925" height="71.16596273291925" width="95.481"><g><svg viewBox="0 0 95.481 71.16596273291925" height="71.16596273291925" width="95.481"><g><svg viewBox="0 0 95.481 71.16596273291925" height="71.16596273291925" width="95.481"><g><svg xmlns="http://www.w3.org/2000/svg" xmlns:xlink="http://www.w3.org/1999/xlink" version="1.1" x="0" y="0" viewBox="10 20 80.5 60" enable-background="new 0 0 100 100" xml:space="preserve" height="71.16596273291925" width="95.481" class="icon-icon-0" data-fill-palette-color="accent" id="icon-0"><path d="M90 30c0-5.5-4.5-10-10-10-3.7 0-6.9 2-8.7 5H28.7c-1.7-3-5-5-8.7-5-5.5 0-10 4.5-10 10 0 5.5 4.5 10 10 10 3.7 0 6.9-2 8.7-5h42.7c1.7 3 5 5 8.7 5C85.5 40 90 35.5 90 30zM20 36c-3.3 0-6-2.7-6-6s2.7-6 6-6 6 2.7 6 6S23.3 36 20 36zM80 36c-3.3 0-6-2.7-6-6s2.7-6 6-6 6 2.7 6 6S83.3 36 80 36zM80 40L69.5 58.2H75V60c0 1.5-0.5 5-5 5H28.7c-1.7-3-5-5-8.7-5-5.5 0-10 4.5-10 10 0 5.5 4.5 10 10 10 3.7 0 6.9-2 8.7-5H70c11 0 15-9 15-15v-1.8h5.5L80 40zM20 76c-3.3 0-6-2.7-6-6s2.7-6 6-6 6 2.7 6 6S23.3 76 20 76z" fill="#ffffff" data-fill-palette-color="accent"></path></svg></g></svg></g></svg></g></svg></g></svg></g><g></g></svg></g><defs></defs></svg><rect width="95.481" height="71.16596273291925" fill="none" stroke="none" visibility="hidden"></rect></g></svg></g></svg>